# xmcd
#
# Track frame offsets:
#	150
#	18578
#	37105
#	58168
#	77927
#	95898
#	107783
#	132230
#	149250
#	170973
#	192158
#	212073
#
# Disc length: 3072 seconds
# Revision: 0
# Processed by: cddbd v1.5.2PL0 Copyright (c) Steve Scherf et al.
# Submitted via: dBpowerAMP V12.0
#
DISCID=bb0bfe0c
DTITLE=Synthetic Breed - Catatonic
DYEAR=2008
DGENRE=Industrial Metal
TTITLE0=Catatonic
TTITLE1=Neuro Connectivity
TTITLE2=Fragmented Human Structure
TTITLE3=Chaos Theory
TTITLE4=Techno Sedation
TTITLE5=Modification and Replacement of Inner Soul Circuitry
TTITLE6=Simulated Inception
TTITLE7=Cybernetics
TTITLE8=Autonomic Deficiency
TTITLE9=Re-Occurring Thought Pattern
TTITLE10=Inconclusive Resolution
TTITLE11=Negative Articulation (Bonus Track)
EXTD=
EXTT0=
EXTT1=
EXTT2=
EXTT3=
EXTT4=
EXTT5=
EXTT6=
EXTT7=
EXTT8=
EXTT9=
EXTT10=
EXTT11=
PLAYORDER=
